PathFileType	4	(X/Y/Z)	C:\Users\WrightLab\Desktop\Jo\P4V17.trc
DataRate	CameraRate	NumFrames	NumMarkers	Units	OrigDataRate	OrigDataStartFrame	OrigNumFrames
100.00	100.00	       24	19	mm	100.00	559	       744
Frame#	Time	Headset_Front			Headset_Back			Headset_Left			Headset_Right			Left_Shoulder			Right_Shoulder			Sternum			C7			Left Elbow			Right Elbow			Left Wrist			Right Wrist			Left ASIS			Right ASIS			S2			Left Knee			Right Knee			Left Ankle			Right Ankle			
		X1	Y1	Z1	X2	Y2	Z2	X3	Y3	Z3	X4	Y4	Z4	X5	Y5	Z5	X6	Y6	Z6	X7	Y7	Z7	X8	Y8	Z8	X9	Y9	Z9	X10	Y10	Z10	X11	Y11	Z11	X12	Y12	Z12	X13	Y13	Z13	X14	Y14	Z14	X15	Y15	Z15	X16	Y16	Z16	X17	Y17	Z17	X18	Y18	Z18	X19	Y19	Z19	

559	5.580	54.53540	1701.81006	1593.86047	127.90373	1661.66260	1718.25134							347.44675	1537.34094	1519.51929	44.18398	1531.14795	1458.97339	187.30859	1477.55603	1602.45508				511.77924	1194.55103	1516.11890	-94.39078	1182.40430	1474.74377	509.22440	921.87378	1668.83655	-107.21604	964.57904	1685.60840	324.43066	1051.99768	1644.85730	1.59919	1030.58508	1553.78577				298.23560	583.29150	1757.44861	98.17746	554.16187	1460.73657	256.85773	91.98039	1796.27539	303.94196	136.94600	1213.76672	
560	5.590	53.88943	1703.00757	1602.89355	125.58336	1663.47388	1727.27002							347.30917	1537.13757	1529.10657	43.59944	1532.10559	1468.39380	186.20108	1479.10413	1612.86145				509.82944	1194.37512	1526.59253	-95.25321	1183.13843	1482.98792	506.45444	922.90735	1682.51697	-110.76440	960.78986	1689.10010	321.21008	1053.84583	1657.28284	-1.14254	1031.91467	1564.98853				292.65894	583.77191	1767.00806	91.42393	553.05389	1477.42920	256.00153	93.73383	1799.22815	300.49118	143.32182	1219.67944	
561	5.600	52.04531	1704.72168	1611.87317	123.30766	1665.03333	1738.15576							345.57187	1537.85107	1539.81531	42.91283	1533.61621	1477.68530	184.77151	1480.60852	1622.88782				508.71909	1194.52075	1538.23462	-96.13113	1184.57678	1491.77234	503.18185	925.23761	1696.59192	-114.33372	957.65942	1692.94409	318.15872	1056.02100	1669.05945	-4.02732	1032.34290	1574.18433				289.31082	587.07062	1779.96313	84.51429	551.44684	1495.00696	255.85609	93.55266	1799.46533	295.46359	150.63992	1226.20886	
562	5.610	50.40296	1705.58887	1620.14636	121.52024	1666.31726	1745.42700							344.59384	1538.95996	1550.51685	41.96941	1534.77966	1485.83850	183.28799	1482.36658	1633.64014				506.65067	1195.25439	1548.84619	-96.72102	1186.00183	1498.80591	500.52621	926.53967	1708.98328	-118.18347	955.17780	1695.98560	315.24860	1057.65344	1680.08325	-5.96262	1033.03992	1583.92334				286.74930	589.38739	1792.31482	76.97668	550.27869	1511.44946	256.09476	93.09448	1800.65234	289.87799	159.73244	1234.04871	
563	5.620	49.32269	1706.25842	1629.21387	119.18836	1668.54419	1754.94531							343.23837	1539.98865	1561.22754	40.95462	1536.49341	1495.63257	180.80363	1483.63367	1643.29236				504.89563	1195.98157	1561.24731	-97.41283	1187.93396	1506.20569	497.21222	928.08533	1722.54041	-121.92609	953.14703	1698.73926	312.62292	1059.31702	1690.91553	-8.52001	1034.42908	1594.84851				285.66711	592.29169	1804.89954	67.21979	548.46057	1530.58423	255.87001	93.34160	1801.10681	284.41577	169.11588	1243.16589	
564	5.630	46.59393	1707.37073	1638.12390	116.61227	1670.76941	1765.39709							341.16080	1540.75952	1571.98877	39.75642	1538.26685	1505.25635	178.56267	1484.58972	1652.56763				502.59943	1196.54456	1572.74451	-98.12344	1189.77917	1514.56824	493.90424	930.48755	1735.88782	-125.60017	950.84961	1701.91992	310.55124	1062.18738	1701.70947	-9.79441	1034.60840	1603.95288				285.43420	593.38654	1813.96313	56.42255	546.67358	1551.05591	256.53552	94.41982	1803.99670	279.43097	179.38210	1251.53003	
565	5.640	45.44969	1709.06104	1646.54077	113.86000	1672.93750	1773.18701							339.06607	1542.01611	1584.90759	38.54668	1540.11145	1514.13782	176.41959	1485.76147	1661.74194				500.21210	1197.81738	1585.31128	-99.12955	1191.73645	1521.04773	491.01276	931.35455	1748.03638	-129.51437	948.47974	1704.01917	308.16272	1064.09119	1712.14111	-12.12536	1035.17676	1613.62708				285.37079	594.73010	1823.68494	45.96478	545.18127	1571.35217	256.05310	94.47741	1806.01465	273.59152	191.33844	1262.14124	
566	5.650	43.73503	1711.00073	1654.56824	111.08505	1675.29211	1784.17468							336.67532	1542.39917	1595.40955	37.36620	1541.01721	1522.95203	173.57182	1486.97888	1672.18896				497.90222	1198.67871	1597.31262	-100.47363	1192.84827	1528.15698	487.08191	933.14752	1761.67139	-133.05203	947.33289	1706.84009	305.94272	1066.22412	1723.12769	-12.99133	1035.91724	1623.56287				285.46912	594.89313	1832.71399	34.90390	544.30127	1592.08557	255.98279	94.52101	1806.01050	267.33273	205.01711	1273.30676	
567	5.660	41.23986	1712.94092	1663.99756	108.95874	1676.81836	1790.76611							334.09790	1543.39368	1607.95667	35.18985	1543.09912	1533.01270	169.94803	1488.14758	1682.59387				495.82553	1199.62585	1610.28748	-101.99489	1194.70959	1534.65063	482.33029	934.48492	1775.59180	-137.27100	945.89752	1709.61694	304.35562	1067.78186	1733.11072	-15.21427	1036.41406	1632.98584	226.96793	1070.10352	1507.35693	284.94843	595.03809	1839.90686	25.07528	544.22540	1612.42163	255.28947	95.56843	1805.53394	260.72720	219.26564	1287.56421	
568	5.670	39.23840	1715.31824	1672.81116	106.04624	1679.77307	1801.53528							331.47766	1544.32153	1618.60486	33.22330	1543.79004	1540.58167	167.00165	1488.29736	1692.16101				493.31482	1200.15527	1623.40942	-103.80793	1195.11743	1541.02356	479.09586	935.01556	1787.87683	-141.16345	944.78345	1712.02319	303.06226	1068.22510	1742.14026	-15.60040	1036.00879	1638.43933				284.26309	593.93286	1846.11633	15.33822	545.07733	1631.63757	255.12505	95.59735	1805.57043	253.13904	233.43509	1302.54980	
569	5.680	36.93438	1717.21643	1680.97986	102.68676	1682.10107	1809.93359							329.23773	1545.18848	1630.31445	30.65425	1545.42493	1550.37878	163.67587	1489.01062	1700.75891				490.65433	1201.23987	1636.48425	-104.36566	1195.57617	1546.48291	475.21878	935.79993	1800.44055	-145.36342	943.80981	1716.26379	301.36316	1069.49377	1752.12573	-17.78440	1038.78589	1650.74927				282.46442	592.55023	1849.12354	6.18585	547.07379	1650.94019	254.29767	96.17373	1805.02698	245.10449	247.45497	1319.36267	
570	5.690	34.55776	1719.89075	1691.24365	100.08555	1684.14844	1820.01416							326.27008	1546.66418	1642.36853	28.16764	1546.82654	1559.22510	159.97363	1489.96948	1711.10364				487.90002	1202.38330	1650.13513	-106.60046	1196.45044	1552.49207	469.60431	937.76550	1813.46899	-149.40366	943.88495	1719.08142	300.09927	1070.34998	1760.47595	-18.84356	1038.91162	1656.63525	223.55972	1070.69653	1537.71863	278.95621	591.74890	1852.69397	-2.50974	549.86816	1670.03247	252.93474	97.04168	1806.11060	237.17220	259.45352	1336.49438	
571	5.700	32.16330	1722.81274	1698.52832	96.62061	1686.88757	1828.08862							323.31213	1548.22083	1653.23975	25.79050	1548.15955	1567.24390	156.22235	1491.03662	1720.55957				484.94739	1204.22375	1663.93359	-109.04447	1197.93457	1558.01611	465.35672	937.83917	1825.72742	-153.08733	942.86676	1722.01147	298.18271	1071.33276	1770.10986	-20.25526	1041.58667	1665.43445				276.31625	592.43756	1857.68408	-10.47725	553.44861	1689.74133	252.81020	97.47516	1806.51538	229.17308	270.90033	1355.96130	
572	5.710	29.62088	1725.57263	1708.85217	93.56339	1689.94507	1838.41907							319.80893	1550.04553	1663.76294	22.95060	1549.52954	1576.06506	151.68275	1493.12500	1729.86157				481.43597	1206.28101	1680.43896	-111.55661	1199.28760	1563.83533	459.83105	938.86420	1838.20752	-156.78979	943.02460	1725.87244	296.86072	1072.57959	1778.63464	-22.87525	1044.93896	1675.80457				274.18326	591.53217	1860.13416	-17.65493	558.05273	1708.77454	252.87114	97.61072	1806.36145	222.15494	280.36786	1374.86145	
573	5.720	26.51227	1727.95923	1716.90601	89.96713	1691.56616	1846.39514							316.33383	1551.40747	1673.22205	20.23654	1551.00623	1583.82593	148.55135	1494.21362	1738.98572				477.70654	1208.91150	1694.20239	-114.04115	1201.43127	1570.51465	455.28348	939.89691	1849.39514	-159.93840	942.98700	1728.08093	294.98941	1073.46021	1787.57324	-23.14119	1046.39734	1681.30151				272.21323	591.68146	1863.34888	-26.38445	562.26288	1730.77124	252.82527	97.68185	1806.32019	215.04153	288.08350	1393.50977	
574	5.730	23.30370	1730.92871	1726.55090	86.82818	1694.20239	1856.80371							314.09766	1554.00757	1682.50134	17.81331	1552.82544	1591.97375	144.39680	1496.14624	1747.84314				473.56570	1211.32214	1708.31836	-116.72412	1203.28040	1576.58105	450.36728	941.30798	1860.79761	-163.44000	943.28772	1730.90540	293.35464	1075.15698	1795.51904	-25.29356	1050.70923	1691.83435				270.76132	592.50415	1866.59717	-33.26524	568.13507	1748.73169	252.82527	97.68185	1806.32019	208.59383	293.45944	1412.76440	
575	5.740	20.50166	1733.00549	1735.34863	83.02223	1696.53540	1864.54456							309.36404	1557.24622	1694.00488	15.28435	1555.10730	1600.05396	141.20828	1497.66541	1755.92432				469.39111	1214.08362	1721.35864	-118.87388	1205.16797	1581.87244	444.32135	942.90027	1873.13269	-166.71559	943.99518	1734.63538	291.54565	1076.96655	1803.59644	-26.75456	1051.94324	1697.77234				269.94656	592.73090	1870.64307	-38.50514	574.50305	1765.08179	252.58180	97.53181	1806.57947	201.58061	297.58960	1430.65869	
576	5.750	17.13314	1736.32495	1743.13892	79.37779	1698.60645	1874.61108							306.50351	1559.58716	1703.65002	12.41144	1556.84619	1607.27454	137.05569	1500.07446	1765.49573				465.64066	1217.39124	1734.54736	-122.11615	1208.12085	1587.30457	438.72348	945.34692	1884.67456	-170.03450	945.43872	1738.14697	289.27304	1078.18433	1812.08069	-28.83682	1054.87659	1704.27515				269.35626	592.31342	1873.65259	-45.97480	580.69727	1783.87769	252.64894	97.67429	1806.41626	194.71341	299.07565	1450.48804	
577	5.760	14.29096	1738.62866	1752.92883	75.91054	1700.75000	1883.34338							302.77783	1562.60059	1713.71838	9.99072	1558.16211	1615.23083	133.72337	1501.80786	1773.54944				461.43854	1220.19922	1748.16443	-124.31679	1209.96582	1591.74500	432.38290	947.82239	1897.08179	-173.19073	946.36060	1741.06055	287.41495	1079.37231	1819.72998	-30.46873	1059.03784	1712.78857				267.44629	594.07306	1879.75769	-52.66826	587.10919	1801.47827	252.28131	98.00904	1806.52551	186.52325	299.75586	1469.94800	
578	5.770	10.54311	1740.70947	1761.33130	72.22269	1702.28320	1891.24683							299.28751	1565.57117	1723.14404	7.54517	1559.92749	1622.94543	129.45876	1503.73315	1781.52393				457.42450	1222.99451	1761.83569	-125.02790	1210.71326	1597.48035	426.59265	949.17969	1907.39709	-176.39896	947.12769	1743.97485	284.98264	1080.98352	1827.21814	-32.53117	1061.49536	1718.32361				266.86234	594.04797	1882.27942	-58.21803	593.68262	1817.22644	252.02664	98.10955	1806.18030	178.86974	298.22287	1491.22449	
579	5.780	6.71457	1742.58289	1769.89941	69.10053	1704.00415	1900.21045							295.95322	1567.71423	1732.39514	4.99994	1561.64587	1630.13538	126.25285	1505.41846	1789.78723				453.30487	1226.05151	1772.34937	-127.16562	1212.43616	1602.64270	419.94907	952.08789	1920.12158	-179.72452	948.60321	1748.06946	283.20697	1082.42358	1835.24878	-34.31341	1064.22241	1726.51306				266.09982	593.75513	1885.13708	-64.41237	600.74573	1832.77454	252.18716	98.46902	1805.39075	170.05054	296.03613	1511.33325	
580	5.790	3.94441	1743.71265	1778.68164	65.24049	1705.52979	1908.44409							291.81433	1570.64905	1742.64185	1.99847	1563.22705	1638.35730	122.32546	1507.42395	1799.10034				449.66080	1228.65771	1784.81604	-129.05542	1213.91711	1606.99475	413.93573	954.63416	1931.17834	-183.29692	950.46594	1752.67212	280.91406	1082.81189	1842.09326	-36.12975	1067.05298	1733.69080				265.33411	593.50488	1887.33240	-70.17238	607.60052	1847.68445	252.86505	98.68204	1805.43726	162.18327	291.67303	1532.79395	
581	5.800	-0.49387	1745.69226	1787.86597	61.06273	1706.66919	1916.28711							288.25842	1572.79199	1751.75244	-0.98334	1565.19666	1646.13135	119.23377	1508.34961	1805.62317				445.80899	1231.04346	1795.98889	-131.03859	1215.59607	1611.29077	407.53372	956.96106	1942.12122	-187.04567	952.08002	1756.61853	279.02817	1083.77478	1850.41064	-39.41891	1071.64990	1743.00415	201.46687	1089.62134	1625.70325	263.79547	594.53009	1890.95508	-75.56693	614.10724	1861.89539	251.20503	98.91953	1805.24609	152.78229	285.90317	1555.50818	
582	5.810	-3.57186	1745.88953	1793.73071	57.63449	1707.37842	1925.25586							285.04498	1574.69189	1761.13281	-3.21901	1566.15295	1653.75549	114.79811	1510.39941	1814.48010				442.62323	1233.85657	1809.47534	-132.87859	1216.69958	1615.43384	401.80222	960.54803	1954.60132	-190.68042	952.31396	1759.76025	276.60663	1084.03174	1857.45996	-40.52562	1072.03320	1748.51123				262.88037	594.54932	1893.28564	-80.86464	620.06488	1875.87683	251.23022	98.96162	1805.25244	143.74036	280.10678	1577.91296	
